<?xml version="1.0" standalone="no"?>
<!DOCTYPE svg PUBLIC "-//W3C//DTD SVG 20010904//EN"
 "http://www.w3.org/TR/2001/REC-SVG-20010904/DTD/svg10.dtd">
<svg version="1.0" xmlns="http://www.w3.org/2000/svg"
 width="1419.000000pt" height="1355.000000pt" viewBox="0 0 1419.000000 1355.000000"
 preserveAspectRatio="xMidYMid meet">
<metadata>
Created by potrace 1.15, written by Peter Selinger 2001-2017
</metadata>
<g transform="translate(0.000000,1355.000000) scale(0.100000,-0.100000)"
fill="#000000" stroke="none">
<path d="M7220 13544 c-192 -14 -435 -64 -605 -124 -192 -69 -307 -129 -901
-475 -157 -92 -179 -107 -148 -100 25 6 4790 -2727 4786 -2745 -1 -7 19 3 45
22 154 111 246 169 261 166 33 -6 22 -36 -40 -109 -101 -119 -128 -156 -115
-156 12 0 390 -215 414 -235 14 -12 106 -1 291 35 124 23 140 21 157 -27 14
-40 0 -55 -97 -106 -93 -48 -105 -57 -85 -57 6 0 193 -104 415 -231 l403 -232
-4 513 c-5 556 -6 579 -71 820 -137 516 -473 986 -920 1286 -100 67 -2529
1468 -2651 1529 -198 99 -446 175 -671 206 -114 16 -370 27 -464 20z"/>
<path d="M7210 2669 c-91 -15 -168 -28 -172 -29 -5 0 -8 -459 -8 -1020 l0
-1020 210 0 210 0 0 539 0 540 56 11 c31 7 93 10 139 8 72 -3 86 -6 119 -32
84 -64 96 -147 96 -673 l0 -393 206 0 205 0 -4 493 c-3 428 -6 501 -21 562
-68 270 -246 395 -560 395 -67 0 -147 -6 -178 -14 l-58 -13 0 338 0 339 -37
-1 c-21 -1 -112 -14 -203 -30z"/>
<path d="M8490 2290 l0 -180 280 0 280 0 0 -755 0 -755 215 0 215 0 0 755 0
755 285 0 285 0 0 180 0 180 -780 0 -780 0 0 -180z"/>
<path d="M482 2040 c-150 -40 -256 -122 -310 -238 -37 -81 -43 -222 -13 -319
42 -136 131 -214 349 -303 244 -100 286 -130 280 -195 -5 -65 -37 -79 -179
-83 -129 -4 -221 10 -358 53 -42 14 -78 21 -82 17 -3 -4 -18 -70 -33 -147 -15
-77 -30 -149 -32 -161 -6 -25 13 -35 149 -71 97 -27 113 -28 322 -28 179 0
232 3 285 18 151 41 259 119 308 225 25 53 27 66 27 192 0 127 -2 138 -28 192
-55 113 -156 182 -417 288 -176 70 -221 113 -197 184 16 47 72 66 197 65 82 0
128 -6 213 -28 l107 -28 9 36 c39 151 62 274 54 282 -5 5 -54 21 -109 35 -86
23 -124 27 -284 30 -161 4 -195 1 -258 -16z"/>
<path d="M1940 2044 c-184 -48 -341 -176 -424 -344 -71 -146 -81 -195 -81
-400 0 -193 15 -271 74 -389 88 -172 260 -297 468 -337 163 -31 466 -11 635
42 70 22 78 27 73 47 -3 12 -14 83 -25 157 -29 186 -21 171 -80 149 -133 -50
-395 -65 -511 -29 -111 34 -191 114 -215 213 l-6 27 455 0 456 0 7 36 c11 57
-2 281 -21 364 -53 237 -209 403 -431 460 -94 24 -289 26 -374 4z m285 -343
c56 -25 111 -90 129 -152 29 -97 51 -89 -244 -89 -143 0 -260 2 -260 4 0 2 9
34 21 71 38 124 118 185 244 185 46 0 83 -7 110 -19z"/>
<path d="M3334 2045 c-45 -7 -114 -20 -153 -30 -69 -17 -72 -18 -67 -44 3 -14
15 -87 27 -161 11 -74 22 -136 23 -138 2 -1 38 7 82 19 100 27 360 38 420 19
88 -28 135 -91 149 -196 l7 -52 -53 10 c-80 15 -371 4 -443 -16 -153 -43 -255
-121 -310 -236 -30 -62 -31 -71 -31 -190 1 -106 4 -134 24 -183 31 -77 76
-135 140 -178 114 -76 222 -99 481 -99 206 1 273 7 463 42 l117 22 0 477 c0
527 -5 583 -60 695 -57 117 -183 207 -336 239 -86 18 -364 18 -480 0z m455
-851 l32 -7 -3 -146 -3 -146 -155 0 c-178 0 -220 13 -252 76 -47 91 -1 188
102 217 40 12 231 15 279 6z"/>
<path d="M6142 2040 c-238 -63 -415 -238 -494 -490 -20 -67 -23 -94 -23 -250
0 -153 3 -185 23 -255 39 -135 77 -201 166 -290 143 -142 290 -195 547 -195
154 0 220 8 337 42 58 17 72 25 72 41 0 23 -50 320 -55 325 -1 2 -36 -7 -76
-20 -64 -20 -95 -23 -224 -23 -145 0 -152 1 -208 29 -105 51 -155 149 -164
319 -7 117 6 188 50 270 58 111 147 157 300 157 81 0 191 -19 258 -45 11 -4
24 31 57 158 23 91 42 167 42 170 0 7 -143 53 -208 66 -89 18 -316 13 -400 -9z"/>
<path d="M11660 2044 c-184 -48 -341 -176 -424 -344 -71 -146 -81 -195 -81
-400 0 -193 15 -271 74 -389 88 -172 260 -297 468 -337 163 -31 466 -11 635
42 70 22 78 27 73 47 -3 12 -14 83 -25 157 -29 186 -21 171 -80 149 -133 -50
-395 -65 -511 -29 -111 34 -191 114 -215 213 l-6 27 455 0 456 0 7 36 c11 57
-2 281 -21 364 -53 237 -209 403 -431 460 -94 24 -289 26 -374 4z m285 -343
c56 -25 111 -90 129 -152 29 -97 51 -89 -244 -89 -143 0 -260 2 -260 4 0 2 9
34 21 71 38 124 118 185 244 185 46 0 83 -7 110 -19z"/>
<path d="M13240 2044 c-184 -48 -341 -176 -424 -344 -71 -146 -81 -195 -81
-400 0 -193 15 -271 74 -389 88 -172 260 -297 468 -337 163 -31 466 -11 635
42 70 22 78 27 73 47 -3 12 -14 83 -25 157 -29 186 -21 171 -80 149 -133 -50
-395 -65 -511 -29 -111 34 -191 114 -215 213 l-6 27 455 0 456 0 7 36 c11 57
-2 281 -21 364 -53 237 -209 403 -431 460 -94 24 -289 26 -374 4z m285 -343
c56 -25 111 -90 129 -152 29 -97 51 -89 -244 -89 -143 0 -260 2 -260 4 0 2 9
34 21 71 38 124 118 185 244 185 46 0 83 -7 110 -19z"/>
<path d="M4935 2043 c-70 -11 -215 -45 -292 -68 l-83 -26 0 -674 0 -675 210 0
210 0 0 544 0 543 38 7 c76 12 237 6 322 -14 46 -10 86 -18 87 -16 9 9 71 332
65 338 -4 4 -39 15 -77 23 -69 16 -412 29 -480 18z"/>
<path d="M10475 2043 c-70 -11 -215 -45 -292 -68 l-83 -26 0 -674 0 -675 210
0 210 0 0 544 0 543 38 7 c76 12 237 6 322 -14 46 -10 86 -18 87 -16 9 9 71
332 65 338 -4 4 -39 15 -77 23 -69 16 -412 29 -480 18z"/>
</g>
</svg>
